<svg width="1920" height="275" viewBox="0 0 1920 275" fill="none" xmlns="http://www.w3.org/2000/svg">
<path fill-rule="evenodd" clip-rule="evenodd" d="M1442.54 22C1252.86 22 1081.63 42.3371 960 75C838.367 108.896 667.142 130 477.459 130C290.402 130 121.297 109.476 0 76.401V275H1920V75V73.6499C1798.7 41.7776 1629.6 22 1442.54 22Z" fill="white"/>
<path fill-rule="evenodd" clip-rule="evenodd" d="M1442.54 0C1252.86 0 1081.63 20.3371 960 53C838.367 86.8955 667.142 108 477.459 108C290.402 108 121.297 87.476 0 54.401V253H1920V53V51.6499C1798.7 19.7776 1629.6 0 1442.54 0Z" fill="white" fill-opacity="0.3"/>
<path fill-rule="evenodd" clip-rule="evenodd" d="M477.459 22C667.142 22 838.367 42.3371 960 75C1081.63 108.895 1252.86 130 1442.54 130C1629.6 130 1798.7 109.476 1920 76.401V275H0V75V73.6499C121.297 41.7776 290.402 22 477.459 22Z" fill="white" fill-opacity="0.5"/>
<path fill-rule="evenodd" clip-rule="evenodd" d="M477.459 0C667.142 0 838.367 20.3371 960 53C1081.63 86.8955 1252.86 108 1442.54 108C1629.6 108 1798.7 87.476 1920 54.401V253H0V53V51.6499C121.297 19.7776 290.402 0 477.459 0Z" fill="white" fill-opacity="0.3"/>
</svg>
